HIERARCHY
ROOT reference
{
  OFFSET 0 0 0
  CHANNELS 6 Xposition Yposition Zposition Zrotation Xrotation Yrotation
  JOINT Hips
  {
    OFFSET -7.77439 66.0199 90.6983
    CHANNELS 6 Xposition Yposition Zposition Zrotation Xrotation Yrotation
    JOINT Spine
    {
      OFFSET 0 7.52385 0
      CHANNELS 6 Xposition Yposition Zposition Zrotation Xrotation Yrotation
      JOINT Spine1
      {
        OFFSET 0 21.7843 0
        CHANNELS 6 Xposition Yposition Zposition Zrotation Xrotation Yrotation
        JOINT Neck
        {
          OFFSET 0 21.6948 1.97225
          CHANNELS 6 Xposition Yposition Zposition Zrotation Xrotation Yrotation
          JOINT Head
          {
            OFFSET 0 12.8456 -1.83509
            CHANNELS 6 Xposition Yposition Zposition Zrotation Xrotation Yrotation
            End Site
            {
              OFFSET 0 22.9386 0
            }
          }
        }
        JOINT LeftShoulder
        {
          OFFSET 3.65748 19.7052 -0.211895
          CHANNELS 6 Xposition Yposition Zposition Zrotation Xrotation Yrotation
          JOINT LeftArm
          {
            OFFSET 11.1953 0 0
            CHANNELS 6 Xposition Yposition Zposition Zrotation Xrotation Yrotation
            JOINT LeftForeArm
            {
              OFFSET 29.6607 0 0
              CHANNELS 6 Xposition Yposition Zposition Zrotation Xrotation Yrotation
              JOINT LeftHand
              {
                OFFSET 23.3476 0 0
                CHANNELS 6 Xposition Yposition Zposition Zrotation Xrotation Yrotation
                End Site
                {
                  OFFSET 13.7631 0 0
                }
              }
            }
          }
        }
        JOINT RightShoulder
        {
          OFFSET -3.68053 19.7052 -0.211895
          CHANNELS 6 Xposition Yposition Zposition Zrotation Xrotation Yrotation
          JOINT RightArm
          {
            OFFSET -11.1953 0 0
            CHANNELS 6 Xposition Yposition Zposition Zrotation Xrotation Yrotation
            JOINT RightForeArm
            {
              OFFSET -29.6607 0 0
              CHANNELS 6 Xposition Yposition Zposition Zrotation Xrotation Yrotation
              JOINT RightHand
              {
                OFFSET -23.3476 0 0
                CHANNELS 6 Xposition Yposition Zposition Zrotation Xrotation Yrotation
                End Site
                {
                  OFFSET -13.7631 0 0
                }
              }
            }
          }
        }
      }
    }
    JOINT LeftUpLeg
    {
      OFFSET 9.17543 0 0
      CHANNELS 6 Xposition Yposition Zposition Zrotation Xrotation Yrotation
      JOINT LeftLeg
      {
        OFFSET 0 -39.1216 0
        CHANNELS 6 Xposition Yposition Zposition Zrotation Xrotation Yrotation
        JOINT LeftFoot
        {
          OFFSET 0 -35.3569 0
          CHANNELS 6 Xposition Yposition Zposition Zrotation Xrotation Yrotation
          JOINT LeftToeBase
          {
            OFFSET 0 -5.96403 13.7631
            CHANNELS 6 Xposition Yposition Zposition Zrotation Xrotation Yrotation
            End Site
            {
              OFFSET 0 0 3.67017
            }
          }
        }
      }
    }
    JOINT RightUpLeg
    {
      OFFSET -9.17543 0 0
      CHANNELS 6 Xposition Yposition Zposition Zrotation Xrotation Yrotation
      JOINT RightLeg
      {
        OFFSET 0 -39.1216 0
        CHANNELS 6 Xposition Yposition Zposition Zrotation Xrotation Yrotation
        JOINT RightFoot
        {
          OFFSET 0 -35.3569 0
          CHANNELS 6 Xposition Yposition Zposition Zrotation Xrotation Yrotation
          JOINT RightToeBase
          {
            OFFSET 0 -5.96403 13.7631
            CHANNELS 6 Xposition Yposition Zposition Zrotation Xrotation Yrotation
            End Site
            {
              OFFSET 0 0 3.67017
            }
          }
        }
      }
    }
  }
}
MOTION
Frames:	8
Frame Time:	0.004
0 0 0 0 0 -0 -7.84663 49.6355 -177.542 3.16931 -2.57665 -9.56318 0 7.52385 0 -14.0156 54.5872 9.93709 0 21.7843 0 -4.77852 12.9368 3.22099 0 21.6948 1.97225 -1.44878 6.03286 -3.3215 -1.77636e-015 12.8456 -1.83509 1.44315 -11.601 -2.97074 3.65748 19.7052 -0.211895 6.58802 3.07616 -25.3108 11.1953 -4.26326e-014 -1.42109e-014 -22.7097 11.0735 -45.4691 29.6607 0 7.10543e-015 16.2131 -21.5661 -18.7726 23.3476 -1.42109e-014 -7.10543e-015 29.43 -13.9463 19.9934 -3.68053 19.7052 -0.211895 -7.67595 4.09146 21.8799 -11.1953 0 0 16.4692 12.5624 49.2523 -29.6607 0 0 -13.1153 -19.0845 11.9844 -23.3476 -1.42109e-014 0 -21.2665 -15.9606 -10.0548 9.17543 0 2.84217e-014 -0.0455583 -61.7957 -10.2771 0 -39.1216 0 -108.16 67.6779 91.7315 -1.42109e-014 -35.3569 -1.42109e-014 19.2069 -29.0152 22.9598 0 -5.96403 13.7631 -3.72721e-017 0 1.59028e-015 -9.17543 7.10543e-015 0 -15.2376 1.18986 7.43376 0 -39.1216 0 -35.3734 87.8601 57.5692 -7.10543e-015 -35.3569 0 11.683 -32.6619 -4.03633 -1.42109e-014 -5.96403 13.7631 4.77083e-015 3.18055e-015 -1.59028e-015 
0 0 0 0 0 -0 -7.81963 49.5408 -177.49 3.18957 -2.47087 -9.53513 0 7.52385 2.84217e-014 -14.047 54.7754 9.96217 0 21.7843 0 -4.72128 12.7856 3.18757 -1.77636e-015 21.6948 1.97225 -1.56212 6.13381 -3.36489 1.77636e-015 12.8456 -1.83509 1.63978 -11.7652 -2.95695 3.65748 19.7052 -0.211895 6.49671 2.78806 -25.4746 11.1953 1.42109e-014 0 -22.7541 10.9149 -45.348 29.6607 0 0 16.0959 -21.6258 -18.6948 23.3476 1.42109e-014 7.10543e-015 29.9608 -13.9575 19.9334 -3.68053 19.7052 -0.211895 -7.74664 4.03744 21.9989 -11.1953 0 -1.42109e-014 16.3903 12.3402 49.1499 -29.6607 2.84217e-014 0 -13.1984 -19.1977 11.9207 -23.3476 0 0 -21.1356 -16.1027 -9.96141 9.17543 0 0 -0.0161179 -62.0003 -10.1427 0 -39.1216 0 -108.788 67.6125 92.2754 0 -35.3569 0 19.2719 -29.0503 23.0796 0 -5.96403 13.7631 9.10061e-016 0 -0 -9.17543 0 0 -15.369 1.17062 7.43565 7.10543e-015 -39.1216 0 -34.7125 87.8594 56.9568 0 -35.3569 0 11.7928 -32.6831 -3.7121 0 -5.96403 13.7631 5.29669e-031 -9.54166e-015 3.18055e-015 
0 0 0 0 0 -0 -7.79781 49.4497 -177.443 3.20258 -2.35545 -9.50398 0 7.52385 0 -14.044 54.931 9.97009 0 21.7843 0 -4.7133 12.7015 3.16843 3.55271e-015 21.6948 1.97225 -1.43191 6.138 -3.35008 1.77636e-015 12.8456 -1.83509 1.52163 -11.9018 -2.98063 3.65748 19.7052 -0.211895 6.61631 2.7165 -25.5351 11.1953 -1.42109e-014 0 -22.7185 10.6256 -45.4936 29.6607 0 -7.10543e-015 16.1349 -21.5737 -18.5494 23.3476 1.42109e-014 7.10543e-015 29.8877 -13.9532 19.849 -3.68053 19.7052 -0.211895 -7.77507 3.93767 22.0512 -11.1953 1.42109e-014 0 16.327 11.9506 49.085 -29.6607 0 -7.10543e-015 -12.9808 -19.1215 11.8977 -23.3476 0 -1.42109e-014 -21.4941 -15.9934 -10.0995 9.17543 -7.10543e-015 0 0.00457069 -62.218 -10.024 3.55271e-015 -39.1216 -1.06581e-014 -109.288 67.5482 93.1238 0 -35.3569 1.42109e-014 19.1994 -29.161 22.8077 3.55271e-015 -5.96403 13.7631 4.53478e-016 -4.96962e-017 7.95139e-016 -9.17543 7.10543e-015 -2.84217e-014 -15.4844 1.12894 7.30356 0 -39.1216 2.84217e-014 -37.3082 87.8112 59.684 -3.55271e-015 -35.3569 0 11.8643 -32.6725 -3.48779 0 -5.96403 13.7631 -1.59028e-015 0 1.59028e-015 
0 0 0 0 0 -0 -7.75868 49.3842 -177.408 3.27594 -2.37241 -9.28631 0 7.52385 0 -13.9428 55.3745 9.85574 0 21.7843 0 -4.66796 12.4705 3.02396 1.77636e-015 21.6948 1.97225 -1.44677 6.18736 -3.39528 0 12.8456 -1.83509 1.63425 -12.0332 -2.99769 3.65748 19.7052 -0.211895 6.67975 2.59599 -25.628 11.1953 1.42109e-014 0 -22.7638 10.3191 -45.5806 29.6607 0 0 16.1308 -21.4026 -18.3769 23.3476 -1.42109e-014 0 29.9922 -13.7269 20.0494 -3.68053 19.7052 -0.211895 -7.7858 3.83368 22.1303 -11.1953 -2.84217e-014 1.42109e-014 16.2057 11.7571 48.971 -29.6607 -2.84217e-014 0 -12.9793 -19.1785 11.8461 -23.3476 0 -1.42109e-014 -21.3737 -16.0632 -10.1248 9.17543 0 0 -0.487382 -62.2936 -10.409 0 -39.1216 -3.55271e-015 -109.548 67.4628 93.7236 7.10543e-015 -35.3569 0 19.1588 -29.1935 22.6408 0 -5.96403 13.7631 -1.0871e-017 4.96962e-017 1.59028e-015 -9.17543 0 0 -15.6999 1.28264 7.07501 0 -39.1216 0 -37.6434 87.7409 60.0994 0 -35.3569 0 11.9133 -32.6428 -3.20307 0 -5.96403 13.7631 6.36111e-015 -6.36111e-015 -0 
0 0 0 0 0 -0 -7.7369 49.3059 -177.356 3.289 -2.28507 -9.26268 0 7.52385 0 -14.021 55.5411 9.93901 0 21.7843 0 -4.5984 12.3768 3.0282 -1.77636e-015 21.6948 1.97225 -1.37832 6.19564 -3.42521 0 12.8456 -1.83509 1.59055 -12.1041 -3.04502 3.65748 19.7052 -0.211895 6.73582 2.46085 -25.7805 11.1953 1.42109e-014 -1.42109e-014 -22.7798 10.0496 -45.6292 29.6607 0 0 16.0576 -21.3231 -18.2622 23.3476 0 1.42109e-014 30.405 -13.5611 20.1755 -3.68053 19.7052 -0.211895 -7.82192 3.77795 22.1822 -11.1953 0 2.84217e-014 16.0487 11.5307 48.9042 -29.6607 0 0 -12.9929 -19.3113 11.7226 -23.3476 0 1.42109e-014 -21.1078 -16.2589 -9.98714 9.17543 -7.10543e-015 -2.84217e-014 -0.483219 -62.4646 -10.2891 0 -39.1216 -7.10543e-015 -110.664 67.5168 94.5788 0 -35.3569 -1.42109e-014 19.1298 -29.2731 22.661 0 -5.96403 13.7631 5.27245e-016 6.83322e-017 7.95139e-016 -9.17543 -7.10543e-015 0 -15.817 1.28846 7.04108 -7.10543e-015 -39.1216 -2.84217e-014 -37.6597 87.7068 60.1251 -3.55271e-015 -35.3569 0 12.0191 -32.6303 -2.85566 0 -5.96403 13.7631 7.06225e-031 -1.27222e-014 3.18055e-015 
0 0 0 0 0 -0 -7.7126 49.2294 -177.306 3.2997 -2.18236 -9.22451 0 7.52385 0 -13.9605 55.7586 9.89079 3.55271e-015 21.7843 0 -4.62231 12.2671 2.97643 -1.77636e-015 21.6948 1.97225 -1.35649 6.18454 -3.44069 0 12.8456 -1.83509 1.58821 -12.2687 -3.06138 3.65748 19.7052 -0.211895 6.80815 2.35921 -25.7596 11.1953 2.84217e-014 1.42109e-014 -22.5534 9.99287 -45.7373 29.6607 0 0 16.1104 -21.4919 -18.1767 23.3476 -2.84217e-014 -7.10543e-015 30.6191 -13.7118 20.1365 -3.68053 19.7052 -0.211895 -7.88406 3.64964 22.2597 -11.1953 -2.84217e-014 0 16.0576 11.244 48.85 -29.6607 -2.84217e-014 -7.10543e-015 -12.9988 -19.2722 11.6657 -23.3476 -1.42109e-014 0 -21.4131 -16.1595 -10.199 9.17543 0 0 -0.471632 -62.5464 -10.926 7.10543e-015 -39.1216 1.42109e-014 -110.322 66.7409 94.2257 0 -35.3569 1.42109e-014 19.4672 -29.4684 22.8641 0 -5.96403 13.7631 -5.55199e-016 -2.48481e-017 -7.95139e-016 -9.17543 0 2.84217e-014 -15.931 1.28301 7.00727 0 -39.1216 -2.84217e-014 -39.7899 87.6854 62.3508 0 -35.3569 0 12.1855 -32.6023 -2.52158 0 -5.96403 13.7631 -1.59028e-015 3.18055e-015 -1.59028e-015 
0 0 0 0 0 -0 -7.45542 49.2166 -177.318 3.56975 -2.3786 -8.2033 0 7.52385 -2.84217e-014 -11.9491 56.6425 8.1399 0 21.7843 0 -5.02446 12.2809 2.22478 1.77636e-015 21.6948 1.97225 -1.37967 5.87448 -3.44345 0 12.8456 -1.83509 1.65302 -12.2657 -3.0423 3.65748 19.7052 -0.211895 7.04286 2.03123 -25.6413 11.1953 0 0 -22.6639 9.6436 -46.0128 29.6607 2.84217e-014 -7.10543e-015 15.99 -21.3985 -18.0027 23.3476 -1.42109e-014 -7.10543e-015 30.9077 -13.5551 20.313 -3.68053 19.7052 -0.211895 -8.29634 3.60647 22.1742 -11.1953 0 1.42109e-014 16.234 10.5213 49.0718 -29.6607 0 0 -12.8081 -19.2441 11.6292 -23.3476 -1.42109e-014 -1.42109e-014 -21.2811 -16.1918 -10.0544 9.17543 -7.10543e-015 0 -3.47446 -62.3584 -14.4026 0 -39.1216 7.10543e-015 -108.366 66.273 93.0542 0 -35.3569 0 19.337 -29.6719 22.3798 0 -5.96403 13.7631 2.11209e-016 -1.98785e-016 -0 -9.17543 7.10543e-015 0 -16.635 1.8526 5.83486 0 -39.1216 2.84217e-014 -40.8527 87.3384 63.7864 -3.55271e-015 -35.3569 0 12.3003 -32.393 -2.32621 0 -5.96403 13.7631 -1.59028e-015 -9.54166e-015 3.18055e-015 
0 0 0 0 0 -0 -7.43365 49.1398 -177.261 3.57275 -2.27849 -8.20184 0 7.52385 0 -11.9312 56.9322 8.11948 0 21.7843 0 -5.04406 11.9676 2.16328 0 21.6948 1.97225 -1.4657 6.00656 -3.44318 1.77636e-015 12.8456 -1.83509 1.78346 -12.4113 -3.00116 3.65748 19.7052 -0.211895 6.98901 2.02294 -25.6705 11.1953 0 0 -22.6115 9.40514 -46.0177 29.6607 2.84217e-014 -7.10543e-015 15.9514 -21.2757 -17.9545 23.3476 0 0 31.2199 -13.3257 20.5091 -3.68053 19.7052 -0.211895 -8.18018 3.36847 22.4809 -11.1953 -1.42109e-014 0 16.2107 10.4715 48.7657 -29.6607 2.84217e-014 1.42109e-014 -12.7945 -19.3118 11.5317 -23.3476 0 0 -21.5746 -16.2213 -10.1934 9.17543 7.10543e-015 2.84217e-014 -3.43923 -62.5107 -14.4835 0 -39.1216 -3.55271e-015 -108.627 66.0388 93.2533 0 -35.3569 0 19.6805 -29.6277 22.5822 0 -5.96403 13.7631 2.11209e-016 9.93923e-017 7.95139e-016 -9.17543 1.42109e-014 0 -16.7441 1.84398 5.84273 7.10543e-015 -39.1216 0 -40.3555 87.3333 63.4799 0 -35.3569 0 12.243 -32.4039 -2.25779 0 -5.96403 13.7631 -3.18055e-015 -6.36111e-015 -0 
